name analog
datacolumns 19
datarows 42
range 0.0 0.0205
endheader
time	ground_force_vx	ground_force_vy	ground_force_vz	ground_force_px	ground_force_py	ground_force_pz	l_ground_force_vx	l_ground_force_vy	l_ground_force_vz	l_ground_force_px	l_ground_force_py	l_ground_force_pz	ground_torque_x	ground_torque_y	ground_torque_z	l_ground_torque_x	l_ground_torque_y	l_ground_torque_z
0.0	-0.0	-0.0	-0.0	12.674675941467283	22.645898818969727	-333.0218505859375	-3.6302311420440674	-75.16175842285156	-583.781494140625	-0.0	-0.0	-0.0	-0.0	-0.0	-0.0	145264.15625	-8715.5859375	-3232.322021484375
0.0005	-0.0	-0.0	-0.0	12.790806770324709	22.31111717224121	-322.3999328613281	-3.4734580516815186	-76.76522064208984	-590.8456420898438	-0.0	-0.0	-0.0	-0.0	-0.0	-0.0	147454.984375	-8879.6669921875	-3161.76318359375
0.001	-0.0	-0.0	-0.0	13.394935607910156	22.35171127319336	-314.70977783203125	-2.749820709228516	-78.5792007446289	-596.5921020507812	-0.0	-0.0	-0.0	-0.0	-0.0	-0.0	149357.09375	-8999.3583984375	-3195.967041015625
0.0015	-0.0	-0.0	-0.0	13.477386474609377	21.721445083618164	-307.4107360839844	-3.2070436477661133	-79.93782043457031	-607.201171875	-0.0	-0.0	-0.0	-0.0	-0.0	-0.0	150978.0625	-9075.9150390625	-3187.638427734375
0.002	-0.0	-0.0	-0.0	14.24089813232422	21.15666007995605	-298.2294006347656	-3.3023557662963867	-81.60923767089844	-615.1788940429688	-0.0	-0.0	-0.0	-0.0	-0.0	-0.0	152914.484375	-8765.3369140625	-3169.701416015625
0.0025	-0.0	-0.0	-0.0	13.701020240783691	20.188766479492188	-288.3941955566406	-3.555037260055542	-82.87205505371094	-620.6243896484375	-0.0	-0.0	-0.0	-0.0	-0.0	-0.0	154491.609375	-8670.0888671875	-3213.092529296875
0.003	-0.0	-0.0	-0.0	14.07595920562744	20.111330032348636	-281.1057434082031	-3.890147686004639	-83.92520904541016	-627.8262939453125	-0.0	-0.0	-0.0	-0.0	-0.0	-0.0	155885.0625	-9022.771484375	-3373.925537109375
0.0035	-0.0	-0.0	-0.0	13.763906478881836	19.97794342041016	-274.3451538085937	-3.814563751220703	-85.13563537597656	-633.6589965820312	-0.0	-0.0	-0.0	-0.0	-0.0	-0.0	157455.03125	-8946.06640625	-3497.2041015625
0.004	-0.0	-0.0	-0.0	13.757293701171877	19.245880126953125	-266.27276611328125	-4.156562328338623	-85.60289001464844	-638.9222412109375	-0.0	-0.0	-0.0	-0.0	-0.0	-0.0	158616.53125	-9084.2490234375	-3552.572509765625
0.0045000000000000005	-0.0	-0.0	-0.0	14.03901481628418	19.06766128540039	-261.861572265625	-4.087076187133789	-86.4167251586914	-642.8885498046875	-0.0	-0.0	-0.0	-0.0	-0.0	-0.0	159871.625	-8859.26171875	-3643.869384765625
0.005	-0.0	-0.0	-0.0	13.750794410705566	18.24700355529785	-254.54473876953125	-4.22020435333252	-87.01573181152344	-647.9508056640625	-0.0	-0.0	-0.0	-0.0	-0.0	-0.0	160747.53125	-9131.216796875	-3642.00341796875
0.0055	-0.0	-0.0	-0.0	13.661423683166504	17.666126251220703	-246.64048767089844	-4.328111171722412	-87.49573516845703	-652.2152099609375	-0.0	-0.0	-0.0	-0.0	-0.0	-0.0	161922.546875	-9094.4501953125	-3676.065185546875
0.006	-0.0	-0.0	-0.0	13.292366027832031	17.755128860473633	-242.8917388916016	-4.51805305480957	-87.53913116455078	-656.1534423828125	-0.0	-0.0	-0.0	-0.0	-0.0	-0.0	163220.234375	-9286.5693359375	-3640.316650390625
0.006500000000000001	-0.0	-0.0	-0.0	12.905598640441896	17.564668655395508	-236.98373413085935	-3.946094751358032	-88.29732513427734	-661.8349609375	-0.0	-0.0	-0.0	-0.0	-0.0	-0.0	164119.859375	-9353.640625	-3654.474609375
0.007	-0.0	-0.0	-0.0	12.215897560119627	16.91696548461914	-232.6750030517578	-4.157257080078125	-88.33982849121094	-665.8560791015625	-0.0	-0.0	-0.0	-0.0	-0.0	-0.0	164835.015625	-9542.82421875	-3765.09521484375
0.0075	-0.0	-0.0	-0.0	11.424826622009276	16.953399658203125	-228.53070068359372	-4.316761016845703	-88.3097152709961	-671.3948974609375	-0.0	-0.0	-0.0	-0.0	-0.0	-0.0	166244.453125	-9499.9521484375	-3699.81982421875
0.008	-0.0	-0.0	-0.0	11.323934555053713	15.704337120056152	-224.0079345703125	-3.649009704589844	-88.66315460205078	-672.5595092773438	-0.0	-0.0	-0.0	-0.0	-0.0	-0.0	167558.65625	-9454.845703125	-3733.12060546875
0.0085	-0.0	-0.0	-0.0	10.693745613098145	15.537453651428224	-220.14508056640625	-3.8263463973999023	-88.51593017578125	-677.3309326171875	-0.0	-0.0	-0.0	-0.0	-0.0	-0.0	168091.0	-9599.1005859375	-3709.455322265625
0.009000000000000001	-0.0	-0.0	-0.0	10.270601272583008	15.330429077148438	-218.61837768554688	-3.779584407806397	-88.99923706054688	-680.1243896484375	-0.0	-0.0	-0.0	-0.0	-0.0	-0.0	168674.078125	-9809.177734375	-3814.492919921875
0.0095	-0.0	-0.0	-0.0	9.89113426208496	14.294529914855955	-217.1389617919922	-3.536931276321411	-88.48116302490234	-681.9157104492188	-0.0	-0.0	-0.0	-0.0	-0.0	-0.0	169470.59375	-9573.927734375	-3753.044921875
0.01	-0.0	-0.0	-0.0	9.53995132446289	14.099308967590332	-214.38021850585935	-3.1821722984313965	-88.5980224609375	-683.988037109375	-0.0	-0.0	-0.0	-0.0	-0.0	-0.0	169847.015625	-9739.447265625	-3727.0458984375
0.0105	-0.0	-0.0	-0.0	9.07749843597412	13.953739166259766	-211.92970275878903	-2.93308424949646	-88.47592163085938	-685.0133666992188	-0.0	-0.0	-0.0	-0.0	-0.0	-0.0	170228.53125	-10204.361328125	-3580.479736328125
0.011	-0.0	-0.0	-0.0	8.810113906860352	14.171733856201172	-209.4141998291016	-2.1624598503112797	-88.06226348876953	-686.43212890625	-0.0	-0.0	-0.0	-0.0	-0.0	-0.0	170404.6875	-10252.6572265625	-3581.72900390625
0.0115	-0.0	-0.0	-0.0	8.369619369506836	14.223172187805176	-207.3806304931641	-2.134583711624145	-88.29418182373047	-686.802978515625	-0.0	-0.0	-0.0	-0.0	-0.0	-0.0	170945.875	-10363.66015625	-3411.187744140625
0.012	-0.0	-0.0	-0.0	8.03956413269043	13.988168716430664	-206.6943359375	-1.2473959922790527	-88.0350341796875	-689.5958862304688	-0.0	-0.0	-0.0	-0.0	-0.0	-0.0	171077.6875	-10648.5390625	-3262.090576171875
0.0125	-0.0	-0.0	-0.0	8.364720344543457	13.993473052978516	-208.6667938232422	-0.7312979698181152	-87.75411224365234	-689.225341796875	-0.0	-0.0	-0.0	-0.0	-0.0	-0.0	171255.765625	-10630.779296875	-3228.33251953125
0.013000000000000001	-0.0	-0.0	-0.0	7.840114116668701	14.460647583007812	-205.19754028320312	-0.8924495577812195	-87.52147674560547	-690.3357543945312	-0.0	-0.0	-0.0	-0.0	-0.0	-0.0	171445.59375	-11097.740234375	-3163.680908203125
0.0135	-0.0	-0.0	-0.0	7.840274810791016	14.2024564743042	-205.48985290527344	-0.0157858654856681	-87.7865219116211	-690.9503784179688	-0.0	-0.0	-0.0	-0.0	-0.0	-0.0	171770.9375	-11052.611328125	-2993.99169921875
0.014	-0.0	-0.0	-0.0	7.41972017288208	14.581839561462402	-203.59262084960935	0.1826412677764892	-87.36053466796875	-693.476806640625	-0.0	-0.0	-0.0	-0.0	-0.0	-0.0	172028.828125	-11383.185546875	-2730.214599609375
0.0145	-0.0	-0.0	-0.0	7.65209436416626	14.44412326812744	-205.74546813964844	0.8086769580841064	-87.27206420898438	-693.7642822265625	-0.0	-0.0	-0.0	-0.0	-0.0	-0.0	172163.65625	-11529.8564453125	-2750.68359375
0.015	-0.0	-0.0	-0.0	7.459098815917969	14.756157875061035	-205.8256683349609	1.2267155647277832	-87.42330932617188	-694.791748046875	-0.0	-0.0	-0.0	-0.0	-0.0	-0.0	172176.296875	-11729.1787109375	-2687.7001953125
0.0155	-0.0	-0.0	-0.0	7.389777660369873	14.364676475524902	-204.17678833007807	1.8629264831542969	-87.43346405029297	-693.1253662109375	-0.0	-0.0	-0.0	-0.0	-0.0	-0.0	172417.078125	-11885.5341796875	-2575.35888671875
0.016	-0.0	-0.0	-0.0	6.963237762451172	15.311174392700195	-205.98019409179688	2.2276828289031982	-87.35014343261719	-695.7810668945312	-0.0	-0.0	-0.0	-0.0	-0.0	-0.0	172399.59375	-12087.5244140625	-2288.3291015625
0.0165	-0.0	-0.0	-0.0	6.878759860992432	14.899090766906738	-207.65089416503903	3.282299041748047	-87.45804595947266	-693.06591796875	-0.0	-0.0	-0.0	-0.0	-0.0	-0.0	172286.34375	-12094.54296875	-2155.69091796875
0.017	-0.0	-0.0	-0.0	7.315261840820312	15.236570358276367	-208.41363525390625	3.4694266319274902	-87.3453140258789	-691.70751953125	-0.0	-0.0	-0.0	-0.0	-0.0	-0.0	172150.71875	-12307.6416015625	-2152.283447265625
0.0175	-0.0	-0.0	-0.0	7.606157302856445	15.391667366027832	-209.38043212890625	4.075922966003418	-87.33113098144531	-691.7256469726562	-0.0	-0.0	-0.0	-0.0	-0.0	-0.0	171889.375	-12271.0751953125	-1975.5137939453125
0.018000000000000002	-0.0	-0.0	-0.0	7.230642318725586	15.776081085205078	-212.22479248046875	4.617691516876221	-87.0015640258789	-691.9813232421875	-0.0	-0.0	-0.0	-0.0	-0.0	-0.0	171228.6875	-12137.201171875	-1889.230712890625
0.0185	-0.0	-0.0	-0.0	7.33330488204956	15.597820281982422	-213.9734649658203	4.458794593811035	-86.72264099121094	-690.5487060546875	-0.0	-0.0	-0.0	-0.0	-0.0	-0.0	171055.59375	-12489.232421875	-1826.8076171875
0.019	-0.0	-0.0	-0.0	6.895903587341309	15.70028591156006	-213.0203399658203	5.327236652374268	-86.28571319580078	-686.87158203125	-0.0	-0.0	-0.0	-0.0	-0.0	-0.0	170754.5	-12218.5263671875	-1648.1151123046875
0.0195	-0.0	-0.0	-0.0	7.319668292999268	16.22173309326172	-217.54139709472656	5.340837478637695	-86.3559799194336	-687.0408935546875	-0.0	-0.0	-0.0	-0.0	-0.0	-0.0	170685.828125	-12263.9189453125	-1591.850830078125
0.02	-0.0	-0.0	-0.0	7.761314392089844	15.69127368927002	-218.26519775390625	5.681958198547363	-85.76925659179688	-684.302001953125	-0.0	-0.0	-0.0	-0.0	-0.0	-0.0	169994.859375	-12019.0263671875	-1538.080322265625
0.0205	-0.0	-0.0	-0.0	7.24318790435791	16.145442962646484	-221.74610900878903	5.868188858032227	-85.59693145751953	-682.9754028320312	-0.0	-0.0	-0.0	-0.0	-0.0	-0.0	169598.3125	-12075.9453125	-1536.3538818359375
